<mxfile host="app.diagrams.net" modified="2023-06-23T10:26:59.483Z" agent="Mozilla/5.0 (Windows NT 10.0; Win64; x64) AppleWebKit/537.36 (KHTML, like Gecko) Chrome/114.0.0.0 Safari/537.36" etag="3QxuM2QAKv_RDct_qscb" version="21.5.0" type="github">
  <diagram name="第 1 页" id="_SFsCGtswl5BA9PN0Chf">
    <mxGraphModel dx="1877" dy="549" grid="1" gridSize="10" guides="1" tooltips="1" connect="1" arrows="1" fold="1" page="1" pageScale="1" pageWidth="827" pageHeight="1169" math="0" shadow="0">
      <root>
        <mxCell id="0" />
        <mxCell id="1" parent="0" />
        <mxCell id="-0zdNHCvYQV7dx8Jabp8-51" style="edgeStyle=orthogonalEdgeStyle;rounded=0;orthogonalLoop=1;jettySize=auto;html=1;exitX=1;exitY=0.5;exitDx=0;exitDy=0;entryX=0;entryY=0.5;entryDx=0;entryDy=0;fontSize=20;fontFamily=Times New Roman;" edge="1" parent="1" source="-0zdNHCvYQV7dx8Jabp8-45" target="-0zdNHCvYQV7dx8Jabp8-3">
          <mxGeometry relative="1" as="geometry" />
        </mxCell>
        <mxCell id="-0zdNHCvYQV7dx8Jabp8-45" value="" style="rounded=0;whiteSpace=wrap;html=1;dashed=1;fontSize=20;fontFamily=Times New Roman;" vertex="1" parent="1">
          <mxGeometry x="-30" y="330" width="120" height="120" as="geometry" />
        </mxCell>
        <mxCell id="-0zdNHCvYQV7dx8Jabp8-50" style="edgeStyle=orthogonalEdgeStyle;rounded=0;orthogonalLoop=1;jettySize=auto;html=1;exitX=1;exitY=0.5;exitDx=0;exitDy=0;entryX=0;entryY=0.5;entryDx=0;entryDy=0;fontSize=20;fontFamily=Times New Roman;" edge="1" parent="1" source="-0zdNHCvYQV7dx8Jabp8-44" target="-0zdNHCvYQV7dx8Jabp8-2">
          <mxGeometry relative="1" as="geometry" />
        </mxCell>
        <mxCell id="-0zdNHCvYQV7dx8Jabp8-44" value="" style="rounded=0;whiteSpace=wrap;html=1;dashed=1;fontSize=20;fontFamily=Times New Roman;" vertex="1" parent="1">
          <mxGeometry x="-20" y="210" width="100" height="100" as="geometry" />
        </mxCell>
        <mxCell id="-0zdNHCvYQV7dx8Jabp8-49" style="edgeStyle=orthogonalEdgeStyle;rounded=0;orthogonalLoop=1;jettySize=auto;html=1;exitX=1;exitY=0.5;exitDx=0;exitDy=0;entryX=0;entryY=0.5;entryDx=0;entryDy=0;fontSize=20;fontFamily=Times New Roman;" edge="1" parent="1" source="-0zdNHCvYQV7dx8Jabp8-42" target="-0zdNHCvYQV7dx8Jabp8-1">
          <mxGeometry relative="1" as="geometry" />
        </mxCell>
        <mxCell id="-0zdNHCvYQV7dx8Jabp8-42" value="" style="rounded=0;whiteSpace=wrap;html=1;dashed=1;fontSize=20;fontFamily=Times New Roman;" vertex="1" parent="1">
          <mxGeometry x="-10" y="110" width="80" height="80" as="geometry" />
        </mxCell>
        <mxCell id="-0zdNHCvYQV7dx8Jabp8-38" style="edgeStyle=orthogonalEdgeStyle;rounded=0;orthogonalLoop=1;jettySize=auto;html=1;exitX=1;exitY=0.5;exitDx=0;exitDy=0;entryX=0;entryY=0.5;entryDx=0;entryDy=0;fontSize=20;fontFamily=Times New Roman;" edge="1" parent="1" source="-0zdNHCvYQV7dx8Jabp8-1" target="-0zdNHCvYQV7dx8Jabp8-7">
          <mxGeometry relative="1" as="geometry">
            <Array as="points">
              <mxPoint x="420" y="150" />
              <mxPoint x="420" y="260" />
            </Array>
          </mxGeometry>
        </mxCell>
        <mxCell id="-0zdNHCvYQV7dx8Jabp8-1" value="C&lt;sub&gt;n&lt;/sub&gt;" style="rounded=0;whiteSpace=wrap;html=1;fontSize=20;fontFamily=Times New Roman;" vertex="1" parent="1">
          <mxGeometry x="110" y="130" width="240" height="40" as="geometry" />
        </mxCell>
        <mxCell id="-0zdNHCvYQV7dx8Jabp8-39" style="edgeStyle=orthogonalEdgeStyle;rounded=0;orthogonalLoop=1;jettySize=auto;html=1;exitX=1;exitY=0.5;exitDx=0;exitDy=0;entryX=0;entryY=0.5;entryDx=0;entryDy=0;fontSize=20;fontFamily=Times New Roman;" edge="1" parent="1" source="-0zdNHCvYQV7dx8Jabp8-2" target="-0zdNHCvYQV7dx8Jabp8-7">
          <mxGeometry relative="1" as="geometry" />
        </mxCell>
        <mxCell id="-0zdNHCvYQV7dx8Jabp8-2" value="D&lt;sub&gt;n1&lt;/sub&gt;" style="rounded=0;whiteSpace=wrap;html=1;fontSize=20;fontFamily=Times New Roman;" vertex="1" parent="1">
          <mxGeometry x="155" y="240" width="150" height="40" as="geometry" />
        </mxCell>
        <mxCell id="-0zdNHCvYQV7dx8Jabp8-40" style="edgeStyle=orthogonalEdgeStyle;rounded=0;orthogonalLoop=1;jettySize=auto;html=1;exitX=1;exitY=0.5;exitDx=0;exitDy=0;entryX=0;entryY=0.5;entryDx=0;entryDy=0;fontSize=20;fontFamily=Times New Roman;" edge="1" parent="1" source="-0zdNHCvYQV7dx8Jabp8-3" target="-0zdNHCvYQV7dx8Jabp8-7">
          <mxGeometry relative="1" as="geometry">
            <Array as="points">
              <mxPoint x="420" y="390" />
              <mxPoint x="420" y="260" />
            </Array>
          </mxGeometry>
        </mxCell>
        <mxCell id="-0zdNHCvYQV7dx8Jabp8-3" value="D&lt;sub&gt;n2&lt;/sub&gt;" style="rounded=0;whiteSpace=wrap;html=1;fontSize=20;fontFamily=Times New Roman;" vertex="1" parent="1">
          <mxGeometry x="190" y="370" width="80" height="40" as="geometry" />
        </mxCell>
        <mxCell id="-0zdNHCvYQV7dx8Jabp8-5" value="" style="whiteSpace=wrap;html=1;aspect=fixed;fontSize=20;fontFamily=Times New Roman;" vertex="1" parent="1">
          <mxGeometry x="-10" y="220" width="20" height="20" as="geometry" />
        </mxCell>
        <mxCell id="-0zdNHCvYQV7dx8Jabp8-7" value="P&lt;sub&gt;n&lt;/sub&gt;" style="rounded=0;whiteSpace=wrap;html=1;fontSize=20;fontFamily=Times New Roman;" vertex="1" parent="1">
          <mxGeometry x="460" y="240" width="200" height="40" as="geometry" />
        </mxCell>
        <mxCell id="-0zdNHCvYQV7dx8Jabp8-9" value="" style="whiteSpace=wrap;html=1;aspect=fixed;fontSize=20;fontFamily=Times New Roman;" vertex="1" parent="1">
          <mxGeometry x="20" y="220" width="20" height="20" as="geometry" />
        </mxCell>
        <mxCell id="-0zdNHCvYQV7dx8Jabp8-10" value="" style="whiteSpace=wrap;html=1;aspect=fixed;fontSize=20;fontFamily=Times New Roman;" vertex="1" parent="1">
          <mxGeometry x="50" y="220" width="20" height="20" as="geometry" />
        </mxCell>
        <mxCell id="-0zdNHCvYQV7dx8Jabp8-11" value="" style="whiteSpace=wrap;html=1;aspect=fixed;fontSize=20;fontFamily=Times New Roman;" vertex="1" parent="1">
          <mxGeometry x="-10" y="250" width="20" height="20" as="geometry" />
        </mxCell>
        <mxCell id="-0zdNHCvYQV7dx8Jabp8-12" value="" style="whiteSpace=wrap;html=1;aspect=fixed;fontSize=20;fontFamily=Times New Roman;" vertex="1" parent="1">
          <mxGeometry x="20" y="250" width="20" height="20" as="geometry" />
        </mxCell>
        <mxCell id="-0zdNHCvYQV7dx8Jabp8-13" value="" style="whiteSpace=wrap;html=1;aspect=fixed;fontSize=20;fontFamily=Times New Roman;" vertex="1" parent="1">
          <mxGeometry x="50" y="250" width="20" height="20" as="geometry" />
        </mxCell>
        <mxCell id="-0zdNHCvYQV7dx8Jabp8-14" value="" style="whiteSpace=wrap;html=1;aspect=fixed;fontSize=20;fontFamily=Times New Roman;" vertex="1" parent="1">
          <mxGeometry x="-10" y="280" width="20" height="20" as="geometry" />
        </mxCell>
        <mxCell id="-0zdNHCvYQV7dx8Jabp8-15" value="" style="whiteSpace=wrap;html=1;aspect=fixed;fontSize=20;fontFamily=Times New Roman;" vertex="1" parent="1">
          <mxGeometry x="20" y="280" width="20" height="20" as="geometry" />
        </mxCell>
        <mxCell id="-0zdNHCvYQV7dx8Jabp8-16" value="" style="whiteSpace=wrap;html=1;aspect=fixed;fontSize=20;fontFamily=Times New Roman;" vertex="1" parent="1">
          <mxGeometry x="50" y="280" width="20" height="20" as="geometry" />
        </mxCell>
        <mxCell id="-0zdNHCvYQV7dx8Jabp8-27" value="" style="whiteSpace=wrap;html=1;aspect=fixed;fontSize=20;fontFamily=Times New Roman;" vertex="1" parent="1">
          <mxGeometry x="-20" y="340" width="20" height="20" as="geometry" />
        </mxCell>
        <mxCell id="-0zdNHCvYQV7dx8Jabp8-28" value="" style="whiteSpace=wrap;html=1;aspect=fixed;fontSize=20;fontFamily=Times New Roman;" vertex="1" parent="1">
          <mxGeometry x="20" y="340" width="20" height="20" as="geometry" />
        </mxCell>
        <mxCell id="-0zdNHCvYQV7dx8Jabp8-29" value="" style="whiteSpace=wrap;html=1;aspect=fixed;fontSize=20;fontFamily=Times New Roman;" vertex="1" parent="1">
          <mxGeometry x="60" y="340" width="20" height="20" as="geometry" />
        </mxCell>
        <mxCell id="-0zdNHCvYQV7dx8Jabp8-30" value="" style="whiteSpace=wrap;html=1;aspect=fixed;fontSize=20;fontFamily=Times New Roman;" vertex="1" parent="1">
          <mxGeometry x="-20" y="380" width="20" height="20" as="geometry" />
        </mxCell>
        <mxCell id="-0zdNHCvYQV7dx8Jabp8-31" value="" style="whiteSpace=wrap;html=1;aspect=fixed;fontSize=20;fontFamily=Times New Roman;" vertex="1" parent="1">
          <mxGeometry x="20" y="380" width="20" height="20" as="geometry" />
        </mxCell>
        <mxCell id="-0zdNHCvYQV7dx8Jabp8-32" value="" style="whiteSpace=wrap;html=1;aspect=fixed;fontSize=20;fontFamily=Times New Roman;" vertex="1" parent="1">
          <mxGeometry x="60" y="380" width="20" height="20" as="geometry" />
        </mxCell>
        <mxCell id="-0zdNHCvYQV7dx8Jabp8-33" value="" style="whiteSpace=wrap;html=1;aspect=fixed;fontSize=20;fontFamily=Times New Roman;" vertex="1" parent="1">
          <mxGeometry x="-20" y="420" width="20" height="20" as="geometry" />
        </mxCell>
        <mxCell id="-0zdNHCvYQV7dx8Jabp8-34" value="" style="whiteSpace=wrap;html=1;aspect=fixed;fontSize=20;fontFamily=Times New Roman;" vertex="1" parent="1">
          <mxGeometry x="20" y="420" width="20" height="20" as="geometry" />
        </mxCell>
        <mxCell id="-0zdNHCvYQV7dx8Jabp8-35" value="" style="whiteSpace=wrap;html=1;aspect=fixed;fontSize=20;fontFamily=Times New Roman;" vertex="1" parent="1">
          <mxGeometry x="60" y="420" width="20" height="20" as="geometry" />
        </mxCell>
        <mxCell id="-0zdNHCvYQV7dx8Jabp8-36" value="" style="group;fontSize=20;fontFamily=Times New Roman;" vertex="1" connectable="0" parent="1">
          <mxGeometry y="120" width="60" height="60" as="geometry" />
        </mxCell>
        <mxCell id="-0zdNHCvYQV7dx8Jabp8-17" value="" style="whiteSpace=wrap;html=1;aspect=fixed;fontSize=20;fontFamily=Times New Roman;" vertex="1" parent="-0zdNHCvYQV7dx8Jabp8-36">
          <mxGeometry width="20" height="20" as="geometry" />
        </mxCell>
        <mxCell id="-0zdNHCvYQV7dx8Jabp8-18" value="" style="whiteSpace=wrap;html=1;aspect=fixed;fontSize=20;fontFamily=Times New Roman;" vertex="1" parent="-0zdNHCvYQV7dx8Jabp8-36">
          <mxGeometry x="20" width="20" height="20" as="geometry" />
        </mxCell>
        <mxCell id="-0zdNHCvYQV7dx8Jabp8-19" value="" style="whiteSpace=wrap;html=1;aspect=fixed;fontSize=20;fontFamily=Times New Roman;" vertex="1" parent="-0zdNHCvYQV7dx8Jabp8-36">
          <mxGeometry x="40" width="20" height="20" as="geometry" />
        </mxCell>
        <mxCell id="-0zdNHCvYQV7dx8Jabp8-20" value="" style="whiteSpace=wrap;html=1;aspect=fixed;fontSize=20;fontFamily=Times New Roman;" vertex="1" parent="-0zdNHCvYQV7dx8Jabp8-36">
          <mxGeometry y="20" width="20" height="20" as="geometry" />
        </mxCell>
        <mxCell id="-0zdNHCvYQV7dx8Jabp8-21" value="" style="whiteSpace=wrap;html=1;aspect=fixed;fontSize=20;fontFamily=Times New Roman;" vertex="1" parent="-0zdNHCvYQV7dx8Jabp8-36">
          <mxGeometry x="20" y="20" width="20" height="20" as="geometry" />
        </mxCell>
        <mxCell id="-0zdNHCvYQV7dx8Jabp8-22" value="" style="whiteSpace=wrap;html=1;aspect=fixed;fontSize=20;fontFamily=Times New Roman;" vertex="1" parent="-0zdNHCvYQV7dx8Jabp8-36">
          <mxGeometry x="40" y="20" width="20" height="20" as="geometry" />
        </mxCell>
        <mxCell id="-0zdNHCvYQV7dx8Jabp8-23" value="" style="whiteSpace=wrap;html=1;aspect=fixed;fontSize=20;fontFamily=Times New Roman;" vertex="1" parent="-0zdNHCvYQV7dx8Jabp8-36">
          <mxGeometry y="40" width="20" height="20" as="geometry" />
        </mxCell>
        <mxCell id="-0zdNHCvYQV7dx8Jabp8-24" value="" style="whiteSpace=wrap;html=1;aspect=fixed;fontSize=20;fontFamily=Times New Roman;" vertex="1" parent="-0zdNHCvYQV7dx8Jabp8-36">
          <mxGeometry x="20" y="40" width="20" height="20" as="geometry" />
        </mxCell>
        <mxCell id="-0zdNHCvYQV7dx8Jabp8-25" value="" style="whiteSpace=wrap;html=1;aspect=fixed;fontSize=20;fontFamily=Times New Roman;" vertex="1" parent="-0zdNHCvYQV7dx8Jabp8-36">
          <mxGeometry x="40" y="40" width="20" height="20" as="geometry" />
        </mxCell>
        <mxCell id="-0zdNHCvYQV7dx8Jabp8-46" style="edgeStyle=orthogonalEdgeStyle;rounded=0;orthogonalLoop=1;jettySize=auto;html=1;exitX=0.5;exitY=1;exitDx=0;exitDy=0;entryX=0;entryY=0.5;entryDx=0;entryDy=0;fontSize=20;fontFamily=Times New Roman;" edge="1" parent="1" source="-0zdNHCvYQV7dx8Jabp8-41" target="-0zdNHCvYQV7dx8Jabp8-42">
          <mxGeometry relative="1" as="geometry" />
        </mxCell>
        <mxCell id="-0zdNHCvYQV7dx8Jabp8-47" style="edgeStyle=orthogonalEdgeStyle;rounded=0;orthogonalLoop=1;jettySize=auto;html=1;exitX=0.5;exitY=1;exitDx=0;exitDy=0;entryX=0;entryY=0.5;entryDx=0;entryDy=0;fontSize=20;fontFamily=Times New Roman;" edge="1" parent="1" source="-0zdNHCvYQV7dx8Jabp8-41" target="-0zdNHCvYQV7dx8Jabp8-44">
          <mxGeometry relative="1" as="geometry" />
        </mxCell>
        <mxCell id="-0zdNHCvYQV7dx8Jabp8-48" style="edgeStyle=orthogonalEdgeStyle;rounded=0;orthogonalLoop=1;jettySize=auto;html=1;exitX=0.5;exitY=1;exitDx=0;exitDy=0;entryX=0;entryY=0.5;entryDx=0;entryDy=0;fontSize=20;fontFamily=Times New Roman;" edge="1" parent="1" source="-0zdNHCvYQV7dx8Jabp8-41" target="-0zdNHCvYQV7dx8Jabp8-45">
          <mxGeometry relative="1" as="geometry" />
        </mxCell>
        <mxCell id="-0zdNHCvYQV7dx8Jabp8-41" value="P&lt;sub&gt;n-1&lt;/sub&gt;" style="rounded=0;whiteSpace=wrap;html=1;fontSize=20;fontFamily=Times New Roman;" vertex="1" parent="1">
          <mxGeometry x="-190" y="30" width="230" height="40" as="geometry" />
        </mxCell>
      </root>
    </mxGraphModel>
  </diagram>
</mxfile>
